<?xml version="1.0" standalone="no"?>
<!DOCTYPE svg PUBLIC "-//W3C//DTD SVG 20010904//EN"
 "http://www.w3.org/TR/2001/REC-SVG-20010904/DTD/svg10.dtd">
<svg version="1.0" xmlns="http://www.w3.org/2000/svg"
 width="512.000000" height="512.000000" viewBox="0 0 512.000000 512.000000"
 preserveAspectRatio="xMidYMid meet">
<metadata>
Created by potrace 1.15, written by Peter Selinger 2001-2017
</metadata>
<g transform="translate(0.000000,512.000000) scale(0.100000,-0.100000)"
stroke="none">
<circle fill="#29B6F6" cx="2560" cy="2560" r="2560" />
<path fill="#587291" d="M2325 4894 c-16 -2 -73 -9 -125 -15 -262 -30 -584 -145 -835 -299
-248 -152 -525 -420 -684 -665 -131 -202 -245 -480 -296 -725 -33 -156 -44
-419 -26 -592 54 -499 285 -971 690 -1408 53 -58 108 -127 121 -154 51 -107
182 -217 365 -309 182 -90 568 -226 702 -247 114 -18 216 8 262 66 59 75 48
168 -40 353 -86 180 -174 306 -304 437 -206 206 -402 311 -767 409 -154 41
-157 43 -241 187 -138 234 -213 462 -238 724 -55 578 270 1139 831 1438 275
146 618 216 915 186 284 -28 559 -130 828 -306 547 -358 769 -840 651 -1411
-25 -121 -70 -248 -139 -388 -160 -326 -385 -589 -717 -838 -292 -219 -431
-399 -469 -604 -13 -66 -6 -143 19 -223 23 -77 119 -173 222 -224 109 -53 229
-82 244 -57 3 5 -24 44 -59 87 -91 109 -119 170 -120 259 0 59 5 78 30 123 54
99 173 187 460 342 421 228 682 466 851 777 196 359 314 772 314 1098 0 644
-332 1172 -983 1564 -313 189 -787 368 -1055 401 -95 11 -362 21 -407 14z
m-646 -3680 c72 -36 201 -144 201 -169 0 -18 -33 -25 -128 -25 -63 0 -93 5
-127 21 -75 35 -108 103 -85 173 15 48 44 48 139 0z"/>
<path fill="#25A18E" d="M2274 4081 c-520 -95 -928 -455 -1083 -956 -80 -259 -81 -540 -5
-795 26 -86 86 -209 151 -306 40 -61 50 -66 237 -114 302 -79 532 -205 721
-395 55 -55 111 -117 125 -138 l25 -37 88 0 c600 0 1162 442 1312 1035 23 91
52 291 44 300 -3 2 -27 -2 -54 -10 -26 -8 -60 -15 -74 -15 -14 0 -55 -14 -90
-30 -35 -17 -65 -29 -66 -28 -8 12 -28 79 -50 163 -14 55 -30 110 -35 122 -13
31 -237 143 -285 143 -30 0 -35 -3 -35 -24 0 -17 26 -48 91 -110 85 -81 89
-87 67 -95 -13 -5 -76 -32 -142 -61 -65 -28 -123 -49 -130 -47 -7 3 -52 61
-101 128 -126 175 -120 168 -135 159 -15 -9 -16 -4 32 -162 l20 -67 129 -71
c71 -39 129 -74 129 -78 0 -4 -57 -74 -127 -156 l-126 -149 2 -113 2 -113 -91
-198 c-51 -109 -96 -202 -100 -207 -8 -8 -317 26 -324 36 -7 9 -106 604 -111
670 l-7 77 -36 5 c-20 3 -105 8 -189 12 -83 3 -166 9 -185 13 l-33 7 -17 109
c-42 277 -41 256 -15 284 13 14 58 64 100 111 l77 86 169 18 169 19 124 -67
123 -66 110 28 110 29 3 56 3 56 -63 3 c-62 3 -63 4 -66 33 -4 27 -16 44 -34
45 -4 0 -10 -16 -14 -35 -7 -42 -11 -45 -46 -38 -21 4 -32 19 -62 84 -19 43
-38 79 -41 79 -4 0 -15 -5 -25 -10 -18 -10 -17 -13 12 -76 25 -54 28 -68 17
-75 -31 -19 -50 -8 -86 50 -43 69 -56 75 -155 65 l-70 -7 -57 -72 c-55 -71
-57 -72 -111 -78 -30 -3 -57 -4 -60 -1 -3 3 -7 50 -8 103 -4 112 -5 111 91
111 42 0 49 3 58 27 10 28 9 35 -17 70 -15 21 -14 23 34 47 28 14 95 40 149
57 68 21 104 39 118 56 l21 25 11 -25 c10 -21 20 -25 79 -32 l68 -7 31 33 c38
42 68 165 44 180 -21 13 -21 13 -58 -43 l-34 -52 -25 29 -25 29 -37 -42 c-35
-41 -99 -70 -122 -56 -18 11 -6 68 28 137 l37 74 101 41 c87 35 115 42 201 47
55 3 114 8 130 10 29 5 31 3 43 -39 10 -39 9 -51 -7 -88 -10 -24 -16 -49 -14
-55 3 -9 33 -13 100 -13 l94 0 47 39 c34 28 70 45 130 61 45 13 82 26 82 30 0
14 -165 104 -266 145 -157 63 -274 86 -474 91 -130 3 -186 0 -266 -15z m-406
-245 c3 -22 -3 -35 -25 -52 -38 -31 -46 -30 -66 10 -16 35 -16 35 11 55 39 30
76 24 80 -13z m243 -112 c15 -38 30 -87 33 -109 7 -39 6 -41 -29 -58 -46 -22
-52 -22 -67 6 -29 54 -26 209 5 229 22 14 32 2 58 -68z m-118 -164 c-4 -4 -18
-11 -30 -14 -16 -5 -23 -2 -28 15 -5 16 1 30 27 56 l33 34 3 -42 c2 -23 0 -45
-5 -49z m1173 -1427 c-3 -27 -13 -109 -22 -183 -9 -74 -19 -138 -23 -141 -3
-4 -25 -10 -48 -14 l-43 -7 0 34 c0 47 30 269 38 284 8 15 83 72 95 73 5 1 6
-20 3 -46z"/>
</g>
</svg>
