<?xml version="1.0" standalone="no"?>
<!DOCTYPE svg PUBLIC "-//W3C//DTD SVG 20010904//EN"
 "http://www.w3.org/TR/2001/REC-SVG-20010904/DTD/svg10.dtd">
<svg version="1.0" xmlns="http://www.w3.org/2000/svg"
 width="512.000000pt" height="512.000000pt" viewBox="0 0 512.000000 512.000000"
 preserveAspectRatio="xMidYMid meet">
<metadata>
Created by potrace 1.15, written by Peter Selinger 2001-2017
</metadata>
<g transform="translate(0.000000,512.000000) scale(0.100000,-0.100000)"
fill="#000000" stroke="none">
<path d="M2350 5114 c-405 -47 -721 -142 -1014 -304 -721 -401 -1187 -1072
-1313 -1890 -25 -162 -25 -558 0 -720 87 -563 335 -1059 726 -1451 392 -391
888 -639 1451 -726 162 -25 558 -25 720 0 1057 163 1882 914 2130 1942 53 218
65 326 65 595 0 184 -5 273 -18 360 -87 563 -335 1059 -726 1451 -389 388
-888 639 -1441 724 -100 16 -498 29 -580 19z m-585 -1112 c-343 -144 -630
-412 -797 -747 -203 -406 -219 -875 -44 -1298 81 -195 182 -344 346 -507 165
-166 329 -275 535 -357 l60 -23 -45 6 c-120 16 -307 77 -436 142 -33 17 -101
57 -150 90 -336 225 -558 558 -646 966 -31 145 -31 427 0 572 99 463 388 842
800 1048 127 64 179 84 307 117 153 39 178 36 70 -9z m1755 6 c278 -68 568
-246 758 -468 446 -521 491 -1252 111 -1820 -71 -106 -211 -257 -317 -341
-187 -150 -459 -271 -682 -303 -40 -6 -37 -4 38 28 484 203 829 617 943 1129
26 117 37 402 20 533 -25 188 -96 401 -188 559 -183 317 -435 537 -793 692
-54 23 -54 24 -15 18 22 -3 78 -15 125 -27z m-1265 -262 c-372 -128 -660 -407
-790 -766 -48 -135 -68 -251 -68 -410 -1 -163 12 -252 55 -390 118 -373 404
-668 781 -806 l92 -34 -55 6 c-30 3 -91 12 -135 21 -357 69 -674 310 -842 639
-94 185 -133 347 -133 556 0 199 41 370 130 548 167 330 509 582 870 640 41 6
82 13 90 15 64 12 67 2 5 -19z m830 -3 c223 -43 435 -159 613 -336 325 -320
436 -806 285 -1241 -65 -186 -151 -324 -288 -461 -195 -196 -418 -309 -687
-349 -141 -21 -147 -20 -52 13 439 150 761 522 839 970 20 110 19 336 0 442
-83 446 -394 807 -829 960 l-81 29 60 -6 c33 -3 96 -12 140 -21z m-285 -328
c36 -10 103 -35 148 -56 393 -182 594 -608 487 -1030 -24 -95 -97 -237 -165
-323 -113 -143 -292 -258 -475 -307 -113 -31 -317 -31 -430 0 -659 176 -891
986 -422 1469 131 135 283 219 467 258 86 18 302 12 390 -11z"/>
</g>
</svg>
