<svg xmlns="http://www.w3.org/2000/svg" viewBox="0 0 500 500">
    <defs>
        <linearGradient gradientUnits="userSpaceOnUse" x1="234.198" y1="63.77" x2="234.198" y2="271.445" id="gradient-0" gradientTransform="matrix(2.407608, 0, 0, 2.407608, -313.858411, -153.533981)">
            <stop offset="0" style="stop-color: rgb(46, 64, 87);"/>
            <stop offset="0.728" style="stop-color: rgb(24, 34, 46);"/>
            <stop offset="1" style=""/>
        </linearGradient>
    </defs>
    <rect width="500" height="500" style="fill: url(#gradient-0); fill-rule: nonzero; paint-order: fill;"/>
    <path d="M 482.8768371582031 143.39519348144532 L 484.3658020019531 143.39519348144532 L 484.3658020019531 151.3491973876953 Q 484.3658020019531 152.96159973144532 483.3975891113281 153.8719512939453 Q 482.42937622070315 154.7823028564453 480.8169738769531 154.7823028564453 Q 479.1428527832031 154.7823028564453 478.2093566894531 153.92595520019532 Q 477.27586059570314 153.06960754394532 477.27586059570314 151.52663879394532 L 478.7571105957031 151.52663879394532 Q 478.7571105957031 152.49099426269532 479.28557739257815 153.03103332519532 Q 479.8140441894531 153.57107238769532 480.8169738769531 153.57107238769532 Q 481.73504028320315 153.57107238769532 482.3020812988281 152.99245910644532 Q 482.86912231445314 152.41384582519532 482.8768371582031 151.37234191894532 Z M 489.31040649414064 151.0868927001953 L 489.52642211914065 152.56814270019532 L 489.8427307128906 151.2334747314453 L 492.0646057128906 143.39519348144532 L 493.3144104003906 143.39519348144532 L 495.48228149414064 151.2334747314453 L 495.79087524414064 152.5912872314453 L 496.0300354003906 151.0791778564453 L 497.7735900878906 143.39519348144532 L 499.26255493164064 143.39519348144532 L 496.5392150878906 154.6280059814453 L 495.1891174316406 154.6280059814453 L 492.8746643066406 146.44255676269532 L 492.6972229003906 145.58620910644532 L 492.5197814941406 146.44255676269532 L 490.12046508789064 154.6280059814453 L 488.77036743164064 154.6280059814453 L 486.05474243164065 143.39519348144532 L 487.53599243164064 143.39519348144532 Z" transform="matrix(18.728744506835938, 0, 0, 24.76555633544922, -8894.02734375, -3445.771240234375)" style="fill: rgb(255, 215, 0); white-space: pre;"/>
</svg>
