<svg version="1.0" xmlns="http://www.w3.org/2000/svg" width="682.667" height="682.667" viewBox="0 0 512 512"><path d="M235 .6C194.5 5.3 162.9 14.8 133.6 31 61.5 71.1 14.9 138.2 2.3 220c-2.5 16.2-2.5 55.8 0 72 8.7 56.3 33.5 105.9 72.6 145.1 39.2 39.1 88.8 63.9 145.1 72.6 16.2 2.5 55.8 2.5 72 0 105.7-16.3 188.2-91.4 213-194.2 5.3-21.8 6.5-32.6 6.5-59.5 0-18.4-.5-27.3-1.8-36-8.7-56.3-33.5-105.9-72.6-145.1C398.2 36.1 348.3 11 293 2.5 283 .9 243.2-.4 235 .6zm-58.5 111.2c-34.3 14.4-63 41.2-79.7 74.7-20.3 40.6-21.9 87.5-4.4 129.8 8.1 19.5 18.2 34.4 34.6 50.7 16.5 16.6 32.9 27.5 53.5 35.7l6 2.3-4.5-.6c-12-1.6-30.7-7.7-43.6-14.2-3.3-1.7-10.1-5.7-15-9-33.6-22.5-55.8-55.8-64.6-96.6-3.1-14.5-3.1-42.7 0-57.2 9.9-46.3 38.8-84.2 80-104.8 12.7-6.4 17.9-8.4 30.7-11.7 15.3-3.9 17.8-3.6 7 .9zm175.5-.6c27.8 6.8 56.8 24.6 75.8 46.8 44.6 52.1 49.1 125.2 11.1 182-7.1 10.6-21.1 25.7-31.7 34.1-18.7 15-45.9 27.1-68.2 30.3-4 .6-3.7.4 3.8-2.8 48.4-20.3 82.9-61.7 94.3-112.9 2.6-11.7 3.7-40.2 2-53.3-2.5-18.8-9.6-40.1-18.8-55.9-18.3-31.7-43.5-53.7-79.3-69.2-5.4-2.3-5.4-2.4-1.5-1.8 2.2.3 7.8 1.5 12.5 2.7zm-126.5 26.2c-37.2 12.8-66 40.7-79 76.6-4.8 13.5-6.8 25.1-6.8 41-.1 16.3 1.2 25.2 5.5 39 11.8 37.3 40.4 66.8 78.1 80.6l9.2 3.4-5.5-.6c-3-.3-9.1-1.2-13.5-2.1-35.7-6.9-67.4-31-84.2-63.9-9.4-18.5-13.3-34.7-13.3-55.6 0-19.9 4.1-37 13-54.8 16.7-33 50.9-58.2 87-64 4.1-.6 8.2-1.3 9-1.5 6.4-1.2 6.7-.2.5 1.9zm83 .3c22.3 4.3 43.5 15.9 61.3 33.6 32.5 32 43.6 80.6 28.5 124.1-6.5 18.6-15.1 32.4-28.8 46.1-19.5 19.6-41.8 30.9-68.7 34.9-14.1 2.1-14.7 2-5.2-1.3 43.9-15 76.1-52.2 83.9-97 2-11 1.9-33.6 0-44.2-8.3-44.6-39.4-80.7-82.9-96l-8.1-2.9 6 .6c3.3.3 9.6 1.2 14 2.1zM280 170.5c3.6 1 10.3 3.5 14.8 5.6 39.3 18.2 59.4 60.8 48.7 103-2.4 9.5-9.7 23.7-16.5 32.3-11.3 14.3-29.2 25.8-47.5 30.7-11.3 3.1-31.7 3.1-43 0-65.9-17.6-89.1-98.6-42.2-146.9 13.1-13.5 28.3-21.9 46.7-25.8 8.6-1.8 30.2-1.2 39 1.1z"/></svg>